{
  "accessors": [
    {
      "bufferView": 2,
      "componentType": 5126,
      "count": 65532,
      "max": [
        0.1836727112531662,
        0.20879153907299042,
        1.1966906785964966
      ],
      "min": [
        -0.1931626796722412,
        -0.15928757190704346,
        -0.0004778761067427695
      ],
      "type": "VEC3"
    },
    {
      "bufferView": 2,
      "byteOffset": 786384,
      "componentType": 5126,
      "count": 65532,
      "max": [
        0.9999562501907349,
        0.9999717473983765,
        0.9999874830245972
      ],
      "min": [
        -0.999995231628418,
        -0.999995231628418,
        -0.9999282956123352
      ],
      "type": "VEC3"
    },
    {
      "bufferView": 3,
      "componentType": 5126,
      "count": 65532,
      "max": [
        0.9960784316062927,
        0.9960784316062927,
        0.9960784316062927,
        1.0
      ],
      "min": [
        0.0,
        0.0,
        0.0,
        1.0
      ],
      "type": "VEC4"
    },
    {
      "bufferView": 1,
      "componentType": 5126,
      "count": 65532,
      "max": [
        0.9913635849952698,
        0.9969704747200012
      ],
      "min": [
        0.003029545769095421,
        0.0004591941833496094
      ],
      "type": "VEC2"
    },
    {
      "bufferView": 0,
      "componentType": 5125,
      "count": 345858,
      "type": "SCALAR"
    },
    {
      "bufferView": 2,
      "byteOffset": 1572768,
      "componentType": 5126,
      "count": 65532,
      "max": [
        0.22962313890457153,
        0.16144999861717224,
        1.13726806640625
      ],
      "min": [
        -0.09458379447460175,
        -0.17148639261722565,
        0.002564471447840333
      ],
      "type": "VEC3"
    },
    {
      "bufferView": 2,
      "byteOffset": 2359152,
      "componentType": 5126,
      "count": 65532,
      "max": [
        0.999983549118042,
        0.9999874830245972,
        0.9999198317527771
      ],
      "min": [
        -0.999995231628418,
        -0.999995231628418,
        -0.998866081237793
      ],
      "type": "VEC3"
    },
    {
      "bufferView": 3,
      "byteOffset": 1048512,
      "componentType": 5126,
      "count": 65532,
      "max": [
        0.9960784316062927,
        0.9960784316062927,
        0.9960784316062927,
        1.0
      ],
      "min": [
        0.0,
        0.0,
        0.0,
        1.0
      ],
      "type": "VEC4"
    },
    {
      "bufferView": 1,
      "byteOffset": 524256,
      "componentType": 5126,
      "count": 65532,
      "max": [
        0.9818613529205322,
        0.9961606860160828
      ],
      "min": [
        0.004176176618784666,
        0.005150973796844482
      ],
      "type": "VEC2"
    },
    {
      "bufferView": 0,
      "byteOffset": 1383432,
      "componentType": 5125,
      "count": 326298,
      "type": "SCALAR"
    },
    {
      "bufferView": 2,
      "byteOffset": 3145536,
      "componentType": 5126,
      "count": 65532,
      "max": [
        0.22962313890457153,
        0.1639331728219986,
        1.0669742822647095
      ],
      "min": [
        -0.08472997695207596,
        -0.1709645688533783,
        -9.700092050479725e-05
      ],
      "type": "VEC3"
    },
    {
      "bufferView": 2,
      "byteOffset": 3931920,
      "componentType": 5126,
      "count": 65532,
      "max": [
        0.9999912977218628,
        0.999995231628418,
        0.9998841881752014
      ],
      "min": [
        -0.9999874830245972,
        -0.999995231628418,
        -0.9995251893997192
      ],
      "type": "VEC3"
    },
    {
      "bufferView": 3,
      "byteOffset": 2097024,
      "componentType": 5126,
      "count": 65532,
      "max": [
        0.9960784316062927,
        0.9960784316062927,
        0.9960784316062927,
        1.0
      ],
      "min": [
        0.0235294122248888,
        0.0235294122248888,
        0.0235294122248888,
        1.0
      ],
      "type": "VEC4"
    },
    {
      "bufferView": 1,
      "byteOffset": 1048512,
      "componentType": 5126,
      "count": 65532,
      "max": [
        0.9455656409263611,
        0.9960588812828064
      ],
      "min": [
        0.004458705894649029,
        0.016867399215698242
      ],
      "type": "VEC2"
    },
    {
      "bufferView": 0,
      "byteOffset": 2688624,
      "componentType": 5125,
      "count": 353844,
      "type": "SCALAR"
    },
    {
      "bufferView": 2,
      "byteOffset": 4718304,
      "componentType": 5126,
      "count": 24977,
      "max": [
        0.1908157765865326,
        0.1560681164264679,
        1.1665819883346558
      ],
      "min": [
        -0.09607325494289398,
        -0.1222972497344017,
        0.001753866788931191
      ],
      "type": "VEC3"
    },
    {
      "bufferView": 2,
      "byteOffset": 5018028,
      "componentType": 5126,
      "count": 24977,
      "max": [
        0.9999562501907349,
        0.9999361634254456,
        0.9999874830245972
      ],
      "min": [
        -0.9999759197235107,
        -0.9999717473983765,
        -0.9987890720367432
      ],
      "type": "VEC3"
    },
    {
      "bufferView": 3,
      "byteOffset": 3145536,
      "componentType": 5126,
      "count": 24977,
      "max": [
        0.9960784316062927,
        0.9960784316062927,
        0.9960784316062927,
        1.0
      ],
      "min": [
        0.0235294122248888,
        0.0235294122248888,
        0.0235294122248888,
        1.0
      ],
      "type": "VEC4"
    },
    {
      "bufferView": 1,
      "byteOffset": 1572768,
      "componentType": 5126,
      "count": 24977,
      "max": [
        0.9523900747299194,
        0.8335708975791931
      ],
      "min": [
        0.009243718348443508,
        0.010432243347167969
      ],
      "type": "VEC2"
    },
    {
      "bufferView": 0,
      "byteOffset": 4104000,
      "componentType": 5125,
      "count": 100227,
      "type": "SCALAR"
    }
  ],
  "asset": {
    "extras": {
      "author": "jan.zachar (https://sketchfab.com/jan.zachar)",
      "license": "CC-BY-4.0 (http://creativecommons.org/licenses/by/4.0/)",
      "source": "https://sketchfab.com/3d-models/madona-sculpture-5e16f3cd478e4c8cb32dede7446a83fb",
      "title": "Madona Sculpture"
    },
    "generator": "Sketchfab-12.67.0",
    "version": "2.0"
  },
  "bufferViews": [
    {
      "buffer": 0,
      "byteLength": 4504908,
      "name": "floatBufferViews",
      "target": 34963
    },
    {
      "buffer": 0,
      "byteLength": 1772584,
      "byteOffset": 4504908,
      "byteStride": 8,
      "name": "floatBufferViews",
      "target": 34962
    },
    {
      "buffer": 0,
      "byteLength": 5317752,
      "byteOffset": 6277492,
      "byteStride": 12,
      "name": "floatBufferViews",
      "target": 34962
    },
    {
      "buffer": 0,
      "byteLength": 3545168,
      "byteOffset": 11595244,
      "byteStride": 16,
      "name": "floatBufferViews",
      "target": 34962
    }
  ],
  "buffers": [
    {
      "byteLength": 15140412,
      "uri": "scene.bin"
    }
  ],
  "images": [
    {
      "uri": "textures/Scene_-_Root_baseColor.jpeg"
    },
    {
      "uri": "textures/Scene_-_Root_metallicRoughness.png"
    }
  ],
  "materials": [
    {
      "doubleSided": true,
      "name": "Scene_-_Root",
      "occlusionTexture": {
        "index": 2,
        "strength": 0.48
      },
      "pbrMetallicRoughness": {
        "baseColorFactor": [
          0.5700000000000001,
          0.5700000000000001,
          0.5700000000000001,
          1.0
        ],
        "baseColorTexture": {
          "index": 0
        },
        "metallicFactor": 0.01,
        "metallicRoughnessTexture": {
          "index": 1
        },
        "roughnessFactor": 0.34
      }
    }
  ],
  "meshes": [
    {
      "name": "Object_0",
      "primitives": [
        {
          "attributes": {
            "COLOR_0": 2,
            "NORMAL": 1,
            "POSITION": 0,
            "TEXCOORD_0": 3
          },
          "indices": 4,
          "material": 0,
          "mode": 4
        }
      ]
    },
    {
      "name": "Object_1",
      "primitives": [
        {
          "attributes": {
            "COLOR_0": 7,
            "NORMAL": 6,
            "POSITION": 5,
            "TEXCOORD_0": 8
          },
          "indices": 9,
          "material": 0,
          "mode": 4
        }
      ]
    },
    {
      "name": "Object_2",
      "primitives": [
        {
          "attributes": {
            "COLOR_0": 12,
            "NORMAL": 11,
            "POSITION": 10,
            "TEXCOORD_0": 13
          },
          "indices": 14,
          "material": 0,
          "mode": 4
        }
      ]
    },
    {
      "name": "Object_3",
      "primitives": [
        {
          "attributes": {
            "COLOR_0": 17,
            "NORMAL": 16,
            "POSITION": 15,
            "TEXCOORD_0": 18
          },
          "indices": 19,
          "material": 0,
          "mode": 4
        }
      ]
    }
  ],
  "nodes": [
    {
      "children": [
        1
      ],
      "matrix": [
        1.0,
        0.0,
        0.0,
        0.0,
        0.0,
        2.220446049250313e-16,
        -1.0,
        0.0,
        0.0,
        1.0,
        2.220446049250313e-16,
        0.0,
        0.0,
        0.0,
        0.0,
        1.0
      ],
      "name": "Sketchfab_model"
    },
    {
      "children": [
        2,
        3,
        4,
        5
      ],
      "name": "Geode"
    },
    {
      "mesh": 0,
      "name": "Object_2"
    },
    {
      "mesh": 1,
      "name": "Object_3"
    },
    {
      "mesh": 2,
      "name": "Object_4"
    },
    {
      "mesh": 3,
      "name": "Object_5"
    }
  ],
  "samplers": [
    {
      "magFilter": 9728,
      "minFilter": 9728,
      "wrapS": 10497,
      "wrapT": 10497
    },
    {
      "magFilter": 9729,
      "minFilter": 9987,
      "wrapS": 10497,
      "wrapT": 10497
    }
  ],
  "scene": 0,
  "scenes": [
    {
      "name": "Sketchfab_Scene",
      "nodes": [
        0
      ]
    }
  ],
  "textures": [
    {
      "sampler": 0,
      "source": 0
    },
    {
      "sampler": 0,
      "source": 1
    },
    {
      "sampler": 1,
      "source": 1
    }
  ]
}
