# Blender v2.92.0 OBJ File: ''
# www.blender.org
mtllib boxes.mtl
o Material2_Cube
v 1.000000 1.000000 -1.000000
v 1.000000 -1.000000 -1.000000
v 1.000000 1.000000 1.000000
v 1.000000 -1.000000 1.000000
v -1.000000 1.000000 -1.000000
v -1.000000 -1.000000 -1.000000
v -1.000000 1.000000 1.000000
v -1.000000 -1.000000 1.000000
vt 1.008938 0.006357
vt 2.007456 0.006357
vt 2.007456 1.004875
vt 1.008938 1.004875
vt 0.010420 1.004875
vt 1.008938 2.003392
vt 0.010420 2.003392
vt 0.010420 -1.990678
vt 1.008938 -1.990678
vt 1.008938 -0.992160
vt 0.010420 -0.992160
vt -0.988097 0.006357
vt 0.010420 0.006357
vt -0.988097 1.004875
vn 0.0000 1.0000 0.0000
vn 0.0000 0.0000 1.0000
vn -1.0000 0.0000 0.0000
vn 0.0000 -1.0000 0.0000
vn 1.0000 0.0000 0.0000
vn 0.0000 0.0000 -1.0000
usemtl Material1
s off
f 1/1/1 5/2/1 7/3/1 3/4/1
f 4/5/2 3/4/2 7/6/2 8/7/2
f 8/8/3 7/9/3 5/10/3 6/11/3
f 6/12/4 2/13/4 4/5/4 8/14/4
f 2/13/5 1/1/5 3/4/5 4/5/5
f 6/11/6 5/10/6 1/1/6 2/13/6
o Cube.001
v 1.000000 4.368084 -1.000000
v 1.000000 2.368084 -1.000000
v 1.000000 4.368084 1.000000
v 1.000000 2.368084 1.000000
v -1.000000 4.368084 -1.000000
v -1.000000 2.368084 -1.000000
v -1.000000 4.368084 1.000000
v -1.000000 2.368084 1.000000
vt 0.990161 0.007208
vt 1.981747 0.007208
vt 1.981747 0.998795
vt 0.990161 0.998795
vt -0.001426 0.998795
vt 0.990161 1.990381
vt -0.001426 1.990381
vt -0.001426 -1.975965
vt 0.990161 -1.975965
vt 0.990161 -0.984378
vt -0.001426 -0.984378
vt -0.993012 0.007208
vt -0.001426 0.007208
vt -0.993012 0.998795
vn 0.0000 1.0000 0.0000
vn 0.0000 0.0000 1.0000
vn -1.0000 0.0000 0.0000
vn 0.0000 -1.0000 0.0000
vn 1.0000 0.0000 0.0000
vn 0.0000 0.0000 -1.0000
usemtl Material.001
s off
f 9/15/7 13/16/7 15/17/7 11/18/7
f 12/19/8 11/18/8 15/20/8 16/21/8
f 16/22/9 15/23/9 13/24/9 14/25/9
f 14/26/10 10/27/10 12/19/10 16/28/10
f 10/27/11 9/15/11 11/18/11 12/19/11
f 14/25/12 13/24/12 9/15/12 10/27/12
