# Blender v2.93.4 OBJ File: ''
# www.blender.org
mtllib test.mtl
o Cube
v 5.371827 2.363222 -1.000000
v 2.875922 0.342320 0.562863
v 1.122986 4.413181 3.033982
v 0.351181 -3.148208 2.936922
v -5.788480 2.363222 -1.000000
v -2.851101 0.807292 1.673533
v -0.877014 4.413181 3.033982
v -1.648819 -3.148208 2.936922
v 0.097310 0.469706 2.206206
v 0.122986 4.413181 3.033982
v -0.648819 -3.148208 2.936922
v -0.208326 2.363222 1.470013
vt 0.750000 0.500000
vt 0.875000 0.500000
vt 0.875000 0.750000
vt 0.750000 0.750000
vt 0.375000 0.875000
vt 0.625000 0.875000
vt 0.625000 1.000000
vt 0.375000 1.000000
vt 0.375000 0.000000
vt 0.625000 0.000000
vt 0.625000 0.250000
vt 0.375000 0.250000
vt 0.250000 0.500000
vt 0.375000 0.500000
vt 0.375000 0.750000
vt 0.250000 0.750000
vt 0.625000 0.500000
vt 0.625000 0.750000
vt 0.375000 0.375000
vt 0.625000 0.375000
vt 0.125000 0.500000
vt 0.125000 0.750000
vn 0.2706 0.6382 -0.7208
vn 0.0000 -0.0128 0.9999
vn -0.6422 0.0633 0.7639
vn -0.3960 -0.2084 -0.8943
vn 0.6958 -0.1292 0.7065
vn -0.4288 -0.2670 -0.8631
vn 0.2592 -0.5447 -0.7976
vn 0.1088 -0.2470 -0.9629
vn -0.2557 0.6859 -0.6813
usemtl Material
s off
f 12/1/1 5/2/1 7/3/1 10/4/1
f 11/5/2 10/6/2 7/7/2 8/8/2
f 8/9/3 7/10/3 5/11/3 6/12/3
f 9/13/4 2/14/4 4/15/4 11/16/4
f 2/14/5 1/17/5 3/18/5 4/15/5
f 9/19/6 12/20/6 1/17/6 2/14/6
f 6/12/7 5/11/7 12/20/7 9/19/7
f 6/21/8 9/13/8 11/16/8 8/22/8
f 4/15/2 3/18/2 10/6/2 11/5/2
f 1/17/9 12/1/9 10/4/9 3/18/9
